<svg width="12" height="7" viewBox="0 0 12 7" fill="none" xmlns="http://www.w3.org/2000/svg">
<path fill-rule="evenodd" clip-rule="evenodd" d="M0.0478845 1.23199C0.0747833 1.30671 0.0970632 1.37525 0.097335 1.38431C0.0976067 1.39338 1.32432 2.62859 2.82339 4.12918C4.48664 5.7942 5.60188 6.88523 5.68479 6.92853C5.86724 7.02387 6.14774 7.0238 6.33009 6.92847C6.50079 6.83921 11.8516 1.4844 11.9375 1.3169C12.0653 1.06764 11.9901 0.678083 11.7755 0.477939C11.589 0.303945 11.2538 0.248246 11.0074 0.350305C10.9197 0.386646 10.2022 1.08011 8.65657 2.62248C7.43304 3.84342 6.37849 4.86982 6.31311 4.90341C6.24117 4.94036 6.1205 4.96448 6.00744 4.96448C5.89438 4.96448 5.7737 4.94036 5.70177 4.90341C5.63639 4.86982 4.58183 3.84342 3.35831 2.62248C1.81265 1.08011 1.09517 0.386646 1.00745 0.350305C0.610315 0.185787 0.135883 0.417654 0.0329067 0.826604C-0.0140984 1.01327 -0.0121624 1.06533 0.0478845 1.23199Z" fill="black"/>
</svg>
